<?xml version="1.0" encoding="iso-8859-1"?>
<!-- Generator: Adobe Illustrator 16.0.0, SVG Export Plug-In . SVG Version: 6.00 Build 0)  -->
<!DOCTYPE svg PUBLIC "-//W3C//DTD SVG 1.1//EN" "http://www.w3.org/Graphics/SVG/1.1/DTD/svg11.dtd">
<svg version="1.1" id="Capa_1" xmlns="http://www.w3.org/2000/svg" xmlns:xlink="http://www.w3.org/1999/xlink" x="0px" y="0px"
	 width="26px" height="26px" viewBox="0 0 48.275 48.275" style="enable-background:new 0 0 48.275 48.275;"
	 xml:space="preserve">
<g>
	<g>
		<path d="M48.257,23.932l-0.004-0.18c-0.035-2.176-0.359-4.328-0.965-6.393c-0.215-0.74-0.474-1.482-0.764-2.205
			c-0.582-1.447-1.31-2.844-2.16-4.15c-0.379-0.584-0.791-1.162-1.228-1.717c-1.188-1.518-2.556-2.893-4.065-4.088
			c-0.55-0.434-1.072-0.814-1.601-1.166C33.508,1.394,28.896,0,24.135,0c-4.199,0-8.344,1.107-11.986,3.203
			c-0.586,0.336-1.158,0.695-1.697,1.068C8.901,5.343,7.475,6.597,6.218,7.992C5.724,8.541,5.257,9.107,4.829,9.676
			c-1.213,1.617-2.221,3.389-2.994,5.264c-0.297,0.715-0.563,1.459-0.791,2.213c-0.619,2.047-0.961,4.188-1.016,6.365l-0.005,0.219
			c-0.004,0.129-0.01,0.258-0.01,0.387c0,0.697,0.035,1.412,0.104,2.187c0.238,2.637,0.906,5.197,1.984,7.613
			c0.551,1.229,1.199,2.409,1.928,3.508C8.375,43.975,15.64,48.01,23.467,48.227l0.225,0.006l0.004,0.043l0.357-0.031l0.057,0.004
			c0.002,0,0.004,0,0.004,0c7.661,0,14.928-3.688,19.469-9.865c0.764-1.039,1.453-2.156,2.047-3.318
			c1.371-2.684,2.217-5.555,2.512-8.534c0.08-0.8,0.121-1.609,0.121-2.404C48.261,24.061,48.259,23.996,48.257,23.932z
			 M46.354,28.369c-0.133,0.699-0.303,1.387-0.5,2.064l-1.584,0.875v1.049l0.598,0.805c-0.104,0.24-0.215,0.48-0.328,0.719
			l-0.93,0.025l-0.053-0.75l0.219,0.094l0.533-0.057l-0.055-0.691l-1.473,0.018l-0.406-0.543l0.023-0.282l-0.396-0.363
			c0.059-0.188,0.121-0.379,0.174-0.569l1.287,1.254l0.137-0.449l-1.006-1.461c1.312-0.678,2.42-1.328,3.373-1.986l0.502-0.35
			L46.354,28.369z M23.204,40.596l0.014,0.271l-0.273-0.01c-0.742-0.027-1.482-0.076-2.219-0.139l0.547-0.988l0.752-0.17v-0.898
			l0.498-0.6l0.531-0.738C23.099,38.41,23.147,39.504,23.204,40.596z M10.464,13.403l-0.182-0.129l0.107-0.195
			c0.918-1.668,2.023-3.344,3.289-4.977l0.148-0.191l0.197,0.145c0.744,0.545,1.582,1.041,2.494,1.473l0.209,0.098l-0.084,0.217
			c-0.055,0.143-0.096,0.283-0.148,0.424l-0.16,0.004l-1.545,0.807l-0.582,1.053l-1.021,0.406l-0.432,0.479l0.1,0.551l0.525,0.076
			l0.32,0.811l0.908-0.377l0.154,1.084h-0.279l-0.748-0.111l-0.361,0.061c-0.836-0.402-1.621-0.854-2.359-1.338l-0.046-0.237
			l-0.23,0.047C10.647,13.524,10.552,13.465,10.464,13.403z M27.991,24.666c-0.555-0.268-2.703-1.303-2.703-1.355
			c0-0.061,0.017-1.166,0.017-1.166h0.627l0.093,0.805l1.313,0.768l1.504,0.074l2.442,0.406
			C30.206,24.408,29.104,24.555,27.991,24.666z M11.343,29.953h0.941l0.514,0.525l1.15,0.121c0.031,0.211,0.055,0.422,0.088,0.633
			l0.061,0.377l-0.371-0.096c-1.205-0.314-2.375-0.691-3.508-1.111h0.648L11.343,29.953z M19.208,22.323l-1.078-0.816l-1.131,0.113
			v0.703h-0.361l-0.385-0.281l-1.035-0.268c0.051-0.498,0.115-1,0.188-1.508l0.211,0.049l0.563-0.24l-0.01-0.688l0.25-0.127
			l-0.203-0.217l-0.555-0.316c0.047-0.252,0.09-0.504,0.141-0.758l0.057-0.271l0.057,0.02l0.109,0.109l0.828,0.725l0.035,0.877
			l0.857,0.926l0.316-1.27l0.596-0.33l0.109,1.041l0.58,0.645l1.748-0.029l0.518,0.395v0.928l-0.637,0.59h-1.768V22.323z
			 M15.827,19.528l-0.211,0.287l-0.143-0.008c0.025-0.156,0.047-0.313,0.074-0.473L15.827,19.528z M34.63,31.194
			c0.088-0.562,0.162-1.123,0.227-1.687l0.119,0.027l0.539-0.795l0.297-2.262l0.553-1.217l0.902-0.34l1.586,0.154l1.986,1.795v2.485
			c-1.822,0.851-3.807,1.564-5.898,2.117l-0.371,0.099L34.63,31.194z M35.95,9.625l-1.244-0.756c0.154-0.092,0.318-0.17,0.472-0.266
			l0.194-0.125l0.14,0.186c0.237,0.32,0.465,0.641,0.69,0.961H35.95z M28.837,10.996l0.004,0.23l-0.74,0.225l-0.041-0.326
			C28.319,11.086,28.579,11.043,28.837,10.996z M22.572,24.838c-0.18-0.008-0.359-0.027-0.537-0.039l-0.699-1.338l0.176-0.209
			l1.291,1.596L22.572,24.838z M22.534,11.385l-0.064-0.191c0.123,0.016,0.246,0.033,0.371,0.047L22.534,11.385z M21.714,11.545
			l-0.738,0.584l-1.797-0.053l-0.08-0.4l1.877-0.086l0.389-0.336l-0.771-0.363c0.422,0.09,0.848,0.164,1.277,0.229L21.714,11.545z
			 M18.134,10.215l0.006-0.018l0.045,0.016L18.134,10.215z M9.036,15.879h0.318l0.91-0.656l0.016-0.176
			c0.146,0.096,0.291,0.193,0.443,0.285L10.395,15.4l-0.072,0.779h0.645l0.855-0.084l0.07-0.086
			c0.107,0.057,0.219,0.109,0.328,0.166l-0.113,0.162l-1.148,0.184l-0.164,0.996l0.484,0.117l-0.137,0.641l-1.141-0.232
			l-1.045,0.232l-0.219,0.594l0.18,1.236l0.615,0.291l1.023-0.006l0.695-0.063l0.215-0.563l1.082-1.434l0.715,0.148l0.703-0.646
			l0.133,0.506l0.105,0.072c-0.115,0.623-0.236,1.248-0.32,1.863l-2.08,0.164l-0.773,0.422h-0.984l-0.486-0.051l-0.809,0.457
			c-0.352-0.186-0.701-0.373-1.039-0.572l-0.154-0.092l0.035-0.176C7.902,18.934,8.394,17.408,9.036,15.879z M9.597,14.616
			L9.604,14.6l0.014,0.01L9.597,14.616z M7.642,22.338c0.234,0.129,0.479,0.248,0.719,0.373v0.053l-1.168,0.857
			c0.016-0.338,0.039-0.688,0.08-1.09l0.037-0.377L7.642,22.338z M8.793,31.444c1.725,0.698,3.559,1.28,5.453,1.733l0.154,0.037
			l0.031,0.154c0.197,0.924,0.434,1.855,0.699,2.793l-0.381,0.74l0.055,0.75l0.646,0.654v1.645
			c-1.063-0.219-2.115-0.469-3.123-0.758l-0.086-0.025l-0.053-0.076c-1.629-2.428-2.885-4.895-3.727-7.334l-0.18-0.521L8.793,31.444
			z M24.397,32.59c-0.004-0.166-0.006-0.328-0.008-0.494l0.57-0.553l2.278-3.312l-0.441-0.207l-2.365,0.506l-0.098-0.049
			c-0.002-0.316-0.004-0.631-0.006-0.943l0.277,0.283l1.158-0.078l2.121-1.561c1.694-0.16,3.358-0.428,4.979-0.812v0.211
			l-0.099,1.031l0.735,1.231c-0.1,1.299-0.264,2.613-0.506,3.933l-0.028,0.166l-0.166,0.034c-2.634,0.543-5.375,0.83-8.15,0.855
			l-0.246,0.002L24.397,32.59z M34.237,33.312l0.033-0.153l0.152-0.037c1.938-0.471,3.818-1.082,5.588-1.815l0.512-0.211
			l-0.18,0.521c-0.873,2.571-2.205,5.172-3.953,7.729l-0.053,0.078l-0.09,0.023c-1.129,0.299-2.363,0.562-3.666,0.787l-0.428,0.074
			l0.151-0.408C33.13,37.698,33.778,35.48,34.237,33.312z M45.276,19.233h0.699l0.285,0.219c0.191,0.91,0.328,1.826,0.408,2.746
			l-1.41-1.504l-0.025-1.424C45.247,19.256,45.263,19.244,45.276,19.233z M37.831,6.426l0.158-0.172l0.182,0.145
			c1.266,1.004,2.412,2.139,3.428,3.373l-0.732,0.754l-0.367-0.027l-1.155-0.873h-1.287c-0.416-0.623-0.846-1.246-1.306-1.857
			L36.61,7.581l0.178-0.152C37.179,7.094,37.528,6.758,37.831,6.426z M34.089,3.825c0.906,0.447,1.713,0.904,2.463,1.4l0.25,0.164
			l-0.205,0.217c-0.191,0.201-0.406,0.389-0.621,0.576l-0.273,0.24l-0.164-0.201c-0.562-0.684-1.148-1.357-1.742-2.002l-0.914-0.988
			L34.089,3.825z M28.749,1.985c0.246,0.053,0.492,0.107,0.734,0.166l0.104,0.055c0.547,0.473,2.498,2.227,4.694,4.896l0.183,0.225
			l-0.246,0.148c-0.761,0.461-1.572,0.857-2.416,1.178l-0.228,0.086l-0.092-0.225c-1.111-2.672-2.246-4.824-3.004-6.16l-0.273-0.48
			L28.749,1.985z M24.759,9.592c0.145-3.449,0.291-6.15,0.389-7.811l0.014-0.248l0.25,0.014c0.256,0.016,0.509,0.031,0.763,0.053
			l0.125,0.012l0.063,0.107c0.599,0.977,2.146,3.631,3.646,7.201l0.11,0.27l-0.28,0.07c-0.775,0.195-1.563,0.342-2.361,0.441
			l-0.641-0.16l-0.06,0.225c-0.584,0.053-1.172,0.088-1.762,0.088h-0.26L24.759,9.592z M22.39,1.569l0.129-0.008
			c0.225-0.016,0.449-0.023,0.676-0.031l0.465-0.014l-0.016,0.273c-0.096,1.645-0.238,4.318-0.383,7.723l-0.012,0.264l-0.264-0.025
			c-1.365-0.135-2.719-0.422-4.025-0.852l-0.258-0.084l0.107-0.252c1.463-3.424,2.943-5.955,3.514-6.885L22.39,1.569z M19.027,2.112
			l0.381-0.105c0.186-0.041,0.371-0.076,0.559-0.111l0.531-0.102l-0.268,0.471c-0.707,1.242-1.775,3.246-2.84,5.742l-0.104,0.238
			l-0.234-0.111c-0.832-0.398-1.514-0.791-2.084-1.201l-0.221-0.158l0.176-0.207c1.961-2.313,3.654-3.846,4.207-4.328L19.027,2.112z
			 M12.886,4.508c0.654-0.377,1.361-0.732,2.164-1.086l1.137-0.5l-0.854,0.9c-0.52,0.547-1.037,1.127-1.543,1.719l-0.182,0.213
			L13.293,5.42c-0.17-0.178-0.338-0.355-0.48-0.545L12.64,4.65L12.886,4.508z M6.868,9.532c1.266-1.498,2.723-2.826,4.33-3.951
			l0.199-0.139l0.145,0.195c0.275,0.369,0.602,0.744,0.969,1.117l0.154,0.156L12.53,7.084c-1.258,1.609-2.371,3.272-3.307,4.943
			l-0.154,0.277l-0.234-0.215c-0.785-0.725-1.451-1.484-1.982-2.256L6.746,9.675L6.868,9.532z M2.808,16.592
			c0.678-1.914,1.615-3.732,2.785-5.406l0.197-0.279l0.207,0.271c0.619,0.811,1.369,1.6,2.23,2.344l0.146,0.127l-0.084,0.172
			c-0.898,1.861-1.574,3.729-2.008,5.547l-0.086,0.363l-0.303-0.219c-1.152-0.83-2.174-1.727-3.035-2.668l-0.102-0.111L2.808,16.592
			z M1.56,25.533l-0.006-0.109c-0.025-0.43-0.041-0.863-0.041-1.301c0-1.793,0.219-3.596,0.646-5.359l0.104-0.424l0.314,0.305
			c0.934,0.904,2.01,1.768,3.203,2.563l0.131,0.086L5.888,21.45c-0.131,0.932-0.201,1.793-0.215,2.639
			c-0.021,1.271,0.078,2.598,0.295,3.939L6.05,28.54l-0.451-0.254C4.13,27.463,2.8,26.559,1.644,25.602L1.56,25.533z M5.142,36.33
			l-0.059-0.031l-0.035-0.055c-1.578-2.477-2.643-5.191-3.164-8.072l-0.109-0.604l0.5,0.355c1.236,0.877,2.615,1.694,4.096,2.432
			l0.102,0.049l0.029,0.109c0.654,2.438,1.699,4.904,3.104,7.326l0.354,0.604l-0.656-0.246C7.831,37.645,6.433,37.016,5.142,36.33z
			 M13.429,44.037c-2.121-1.146-4.033-2.607-5.684-4.344l-0.793-0.834l1.068,0.43c0.938,0.377,1.965,0.74,3.146,1.107l0.082,0.025
			l0.049,0.069c0.756,1.084,1.578,2.147,2.439,3.162l0.865,1.019L13.429,44.037z M18.699,46.078
			c-0.232-0.059-0.465-0.119-0.695-0.184l-0.098-0.055c-0.188-0.168-1.875-1.707-3.852-4.197l-0.441-0.56l0.693,0.158
			c0.633,0.146,1.299,0.274,1.99,0.399v1.121h1.244c0.459,1.025,0.936,2.023,1.438,2.953l0.27,0.5L18.699,46.078z M23.3,46.725
			c-0.656-0.022-1.326-0.078-1.992-0.162l-0.121-0.014l-0.063-0.104c-0.311-0.513-1.127-1.92-2.057-3.957l0.367-0.384
			c1.209,0.136,2.432,0.228,3.637,0.269l0.229,0.009l0.014,0.227c0.088,1.553,0.174,2.861,0.244,3.852l0.02,0.277L23.3,46.725z
			 M24.708,40.666c-0.004-0.062-0.006-0.127-0.01-0.191l0.293-0.479l1.122-1.672l0.537-2.621h-0.685l-0.662,1.35l-0.762-0.102
			c-0.033-0.791-0.063-1.584-0.088-2.367l-0.008-0.256l0.254-0.002c2.523-0.025,5.068-0.275,7.564-0.742l0.379-0.07l-0.09,0.373
			c-0.514,2.178-1.211,4.373-2.074,6.527l-0.057,0.139l-0.146,0.019c-1.787,0.213-3.576,0.323-5.318,0.334h-0.238L24.708,40.666z
			 M27.522,46.467l-0.117,0.017c-0.672,0.1-1.373,0.168-2.082,0.204l-0.246,0.015l-0.016-0.246
			c-0.068-0.963-0.156-2.252-0.244-3.786l-0.016-0.265l0.264-0.002c1.4-0.011,2.832-0.084,4.252-0.222l0.434-0.041l-0.182,0.396
			c-0.863,1.888-1.613,3.209-1.983,3.828L27.522,46.467z M31.104,45.608l-0.096,0.057c-0.295,0.095-0.598,0.177-0.898,0.259
			l-0.627,0.17l0.273-0.513c0.596-1.114,1.166-2.305,1.693-3.532l0.055-0.127l0.139-0.021c1.027-0.15,1.869-0.297,2.65-0.461
			l0.682-0.141l-0.436,0.543C32.974,43.791,31.616,45.125,31.104,45.608z M39.819,40.407c-1.162,1.121-2.508,2.146-4,3.054
			l-1.254,0.76l0.93-1.133c0.619-0.752,1.22-1.535,1.779-2.328l0.051-0.07l0.086-0.025c0.816-0.232,1.521-0.453,2.152-0.672
			l1.072-0.369L39.819,40.407z M42.628,37.137l-0.039,0.056l-0.061,0.026c-0.966,0.443-2.031,0.867-3.263,1.297l-0.646,0.226
			l0.35-0.59c1.135-1.91,2.041-3.845,2.711-5.774l1.064,1.323l0.387,0.133v0.187h-0.516l0.129,0.414l1.479,0.065
			C43.755,35.405,43.226,36.287,42.628,37.137z M46.704,25.635l-0.006,0.109l-0.086,0.068c-0.757,0.607-1.599,1.182-2.478,1.732
			v-0.007l-1.172-0.959c0.055-0.555,0.086-1.103,0.098-1.643l0.043-0.059l0.691,0.224l-0.058,0.479l0.396,0.615l0.35-0.252
			l-0.193-0.729l1.935-0.706l0.533-0.453c0,0.021,0.002,0.045,0.002,0.066C46.761,24.582,46.743,25.062,46.704,25.635z"/>
		<polygon points="36.208,29.953 36.3,29.073 35.624,28.939 35.14,29.635 35.37,30.271 		"/>
	</g>
</g>
<g>
</g>
<g>
</g>
<g>
</g>
<g>
</g>
<g>
</g>
<g>
</g>
<g>
</g>
<g>
</g>
<g>
</g>
<g>
</g>
<g>
</g>
<g>
</g>
<g>
</g>
<g>
</g>
<g>
</g>
</svg>
