<?xml version="1.0" encoding="UTF-8"?>
<svg xmlns="http://www.w3.org/2000/svg" xmlns:xlink="http://www.w3.org/1999/xlink" viewBox="0 0 100 100" width="100px" height="100px" fill = "#F0F5F9">
<g id="surface58008569">
<path style=" stroke:none;fill-rule:nonzero;fill:rgb(11.764706%,12.54902%,13.333334%);fill-opacity:1;" d="M 17.078125 18 L 3.375 33.992188 L 14.65625 47.335938 C 15.070312 47.882812 15.570312 48.460938 16.234375 49.1875 L 50 89.09375 L 51.53125 87.289062 L 96.625 33.992188 L 83.625 18.828125 C 83.539062 18.695312 83.4375 18.570312 83.3125 18.46875 L 82.914062 18 Z M 18.921875 22 L 26.289062 22 C 21.21875 25.070312 15.460938 30.28125 12.742188 38.875 L 8.625 34.007812 Z M 50 22 C 65.601562 21.601562 67.796875 31.601562 68 32.398438 C 68.203125 33.601562 69.398438 34.398438 70.398438 34 L 82 34 C 83.203125 34 84 33.203125 84 32 L 84 25.40625 L 91.375 34.007812 L 83.234375 43.625 C 79.765625 35.601562 65.117188 35.601562 52 35.601562 C 39.601562 35.601562 32 35.398438 32 31.601562 C 32 32 32.398438 22.398438 50 22 Z M 65.117188 22 L 72.445312 22 C 71.492188 23.648438 70.539062 25.328125 69.804688 26.804688 C 68.78125 25.226562 67.265625 23.507812 65.117188 22 Z M 24.375 52.617188 C 32.242188 53.992188 45.257812 54 64 54 C 66.398438 54 68.203125 54.601562 69 55.601562 C 69.601562 56.601562 69.398438 57.804688 69.195312 58.804688 C 68.398438 61.203125 65.601562 64.398438 61.398438 66.195312 C 57.796875 67.601562 53 68 50.195312 68 L 49.804688 68 C 49 63.796875 46 58 38 58 C 34.132812 58 31.664062 58.804688 30.21875 59.53125 Z M 60.617188 70.359375 L 50 82.90625 L 39.828125 70.882812 C 41.898438 71.304688 44.507812 71.710938 47.601562 71.804688 L 49.195312 71.804688 C 51.421875 71.804688 56.257812 71.648438 60.617188 70.359375 Z M 60.617188 70.359375 "/>
</g>
</svg>
